<svg width="40" height="40" viewBox="0 0 40 40" fill="none" xmlns="http://www.w3.org/2000/svg">
<path d="M20 4.375L20.6875 4.6875L33.6875 9.6875L34.875 10.125L34.9375 11.4375C35.125 14.5 34.625 19.25 32.625 23.875C30.5625 28.5625 26.9375 33.25 20.75 35.875L20 36.1875L19.1875 35.875C13.0625 33.25 9.375 28.5625 7.3125 23.875C5.3125 19.25 4.8125 14.5 5 11.4375L5.0625 10.125L6.3125 9.6875L19.25 4.6875L20 4.375ZM27.0625 17.0625L28.125 16L26 13.9375L24.9375 15L18 21.9375L15.0625 19L14 17.9375L11.875 20L12.9375 21.0625L16.9375 25.0625L18 26.125L19.0625 25.0625L27.0625 17.0625Z" fill="url(#paint0_linear_8217_7961)"/>
<defs>
<linearGradient id="paint0_linear_8217_7961" x1="4" y1="20" x2="36" y2="20" gradientUnits="userSpaceOnUse">
<stop stop-color="#0093D5"/>
<stop offset="1" stop-color="#50C659"/>
</linearGradient>
</defs>
</svg>
