<svg width="40" height="40" viewBox="0 0 40 40" fill="none" xmlns="http://www.w3.org/2000/svg">
<path d="M28 23.0625V31L18 36V27.125C18 25.8125 17.4375 24.5 16.5 23.5C15.5 22.5625 14.1875 22 12.875 22H4L9 12H16.9375C22.375 3.0625 30.9375 3.5 35.375 4.625C36.5 9.0625 36.9375 17.625 28 23.0625ZM30.5 12C30.5 10.625 29.375 9.5 28 9.5C26.5625 9.5 25.5 10.625 25.5 12C25.5 13.4375 26.5625 14.5 28 14.5C29.375 14.5 30.5 13.4375 30.5 12ZM14.375 33.375C11.3125 36.5 4 36 4 36C4 36 3.5 28.6875 6.625 25.625C8.75 23.5 12.25 23.5 14.375 25.625C16.5 27.75 16.5 31.25 14.375 33.375ZM11.4375 31.125C12.1875 30.4375 12.1875 29.25 11.4375 28.5625C10.75 27.8125 9.5625 27.8125 8.875 28.5625C7.8125 29.5625 8 32 8 32C8 32 10.4375 32.1875 11.4375 31.125Z" fill="url(#paint0_linear_8217_7971)"/>
<defs>
<linearGradient id="paint0_linear_8217_7971" x1="4" y1="20" x2="36" y2="20" gradientUnits="userSpaceOnUse">
<stop stop-color="#0093D5"/>
<stop offset="1" stop-color="#50C659"/>
</linearGradient>
</defs>
</svg>
