<svg width="16" height="16" viewBox="0 0 16 16" fill="none" xmlns="http://www.w3.org/2000/svg">
<path d="M8.23599 4.51275C8.36604 4.6428 8.36604 4.85422 8.23599 4.98428C8.10593 5.11433 7.89451 5.11433 7.76446 4.98428C7.6344 4.85422 7.6344 4.6428 7.76446 4.51275C7.89451 4.38269 8.10526 4.38269 8.23599 4.51275" stroke="white" stroke-width="1.5" stroke-linecap="round" stroke-linejoin="round"/>
<path d="M10.8744 4.81722V4.81722C10.8744 5.59821 10.5276 6.33785 9.92798 6.83806L8.98558 7.62372C8.61009 7.93719 8.32931 8.34869 8.17458 8.81289L7.99984 9.33444L7.82577 8.81222C7.67104 8.34869 7.39025 7.93652 7.01476 7.62306L6.07237 6.8374C5.47212 6.33719 5.12598 5.59755 5.12598 4.81655V4.81655V4.83123C5.12531 3.03848 6.6106 1.99805 7.99984 1.99805C9.38909 1.99805 10.8744 3.03848 10.8744 4.83189" stroke="white" stroke-width="1.5" stroke-linecap="round" stroke-linejoin="round"/>
<path d="M3.99882 8.00098C3.36322 8.00098 2.81566 8.44983 2.69094 9.07342L2.024 12.4081C1.8586 13.2332 2.49019 14.0035 3.33188 14.0035H12.6684C13.5101 14.0035 14.1417 13.2332 13.9763 12.4081L13.3094 9.07342C13.1846 8.44983 12.6371 8.00098 12.0015 8.00098" stroke="white" stroke-width="1.5" stroke-linecap="round" stroke-linejoin="round"/>
</svg>
