<svg width="16" height="16" viewBox="0 0 16 16" fill="none" xmlns="http://www.w3.org/2000/svg">
<path fill-rule="evenodd" clip-rule="evenodd" d="M3.41797 6.69569V6.58102C3.41797 4.05036 5.4693 1.99902 7.99997 1.99902V1.99902C10.5306 1.99902 12.582 4.05036 12.582 6.58102V6.69569C12.582 9.00302 9.66064 12.4764 8.4833 13.783C8.22397 14.071 7.77597 14.071 7.51664 13.783C6.3393 12.4764 3.41797 9.00302 3.41797 6.69569Z" stroke="white" stroke-width="1.4468" stroke-linecap="round" stroke-linejoin="round"/>
<path d="M6.66675 6.63501C6.66675 7.37149 7.26341 7.96801 8.00008 7.96801V7.96801C8.73675 7.96801 9.33341 7.37149 9.33341 6.63501V6.61035C9.33341 5.87386 8.73675 5.27734 8.00008 5.27734V5.27734C7.26341 5.27734 6.66675 5.87386 6.66675 6.61035" stroke="white" stroke-width="1.4468" stroke-linecap="round" stroke-linejoin="round"/>
</svg>
