<svg width="16" height="16" viewBox="0 0 16 16" fill="none" xmlns="http://www.w3.org/2000/svg">
<path d="M2 5.03387V11.3325C2 12.4372 2.89533 13.3325 4 13.3325H12C13.1047 13.3325 14 12.4372 14 11.3325V5.0332" stroke="white" stroke-width="1.5" stroke-linecap="round" stroke-linejoin="round"/>
<path fill-rule="evenodd" clip-rule="evenodd" d="M5.66133 7.99967H10.3387C10.7393 7.99967 11.13 7.87967 11.462 7.65501L13.2533 6.44167C13.72 6.12567 14 5.59834 14 5.03434V5.03434C14 4.09434 13.238 3.33301 12.2973 3.33301H3.70267C2.762 3.33301 2 4.09434 2 5.03367V5.03367C2 5.59767 2.28 6.12501 2.74733 6.44167L4.53867 7.65501C4.87 7.87967 5.26133 7.99967 5.66133 7.99967Z" stroke="white" stroke-width="1.5" stroke-linecap="round" stroke-linejoin="round"/>
</svg>
