<svg width="116" height="36" viewBox="0 0 116 36" fill="none" xmlns="http://www.w3.org/2000/svg">
<path fill-rule="evenodd" clip-rule="evenodd" d="M73.5386 3.63932H87.4744H87.5423L87.5807 3.58264C87.8946 3.12493 88.2309 2.67821 88.59 2.24334C88.949 1.80783 89.3284 1.3874 89.7261 0.983128L89.7639 0.944553V0.891972V0.880766V0.749744H89.6334H68.349H68.219V0.880766V25.4067V25.5373H68.349H89.6334H89.7639V25.4067V25.3953V25.3425L89.7261 25.3043C89.3284 24.9001 88.949 24.4792 88.59 24.0439C88.2314 23.6092 87.8946 23.1625 87.5807 22.7048L87.5423 22.6479H87.4744H73.5386V14.3257H84.4661H84.6045L84.5959 14.1865C84.585 14.0094 84.5762 13.8359 84.5704 13.6667C84.5653 13.5025 84.5622 13.3282 84.5622 13.1437C84.5622 12.875 84.5691 12.613 84.5811 12.3574C84.594 12.0951 84.6131 11.8355 84.6374 11.579L84.6507 11.4359H84.5077H73.5386V3.63932ZM101.818 23.3487C103.385 23.3487 104.887 23.0774 106.326 22.5344C107.044 22.2633 107.747 21.9064 108.434 21.4644C109.123 21.022 109.796 20.4936 110.453 19.8803L110.553 19.7868L110.64 19.8924L112.385 21.995L112.464 22.0898L112.374 22.1734C111.705 22.7981 110.965 23.3586 110.155 23.8534C109.345 24.3488 108.465 24.7789 107.517 25.1434C106.568 25.5078 105.589 25.7814 104.58 25.964C103.57 26.1465 102.533 26.2383 101.469 26.2383C100.371 26.2383 99.3254 26.1672 98.3326 26.026C97.3403 25.8853 96.4012 25.673 95.5155 25.3905C94.6285 25.1074 93.806 24.7565 93.0495 24.3387C92.2921 23.9191 91.5983 23.4323 90.9686 22.8768C90.3379 22.321 89.7802 21.7 89.2945 21.0151C88.8099 20.3305 88.3964 19.5803 88.0558 18.7651H88.0552C87.7146 17.9521 87.4586 17.0752 87.2888 16.1361C87.118 15.1985 87.0332 14.2009 87.0332 13.1437C87.0332 12.0867 87.1169 11.089 87.2839 10.1514C87.4517 9.21353 87.7026 8.33754 88.0376 7.52319C88.3726 6.70861 88.7786 5.95848 89.255 5.2732C89.7319 4.58771 90.2795 3.96709 90.8974 3.41132C91.5155 2.85556 92.1971 2.36811 92.9394 1.94941C93.6819 1.53091 94.4888 1.18009 95.358 0.896498C96.2261 0.614414 97.1401 0.402151 98.1002 0.261217C99.0614 0.119852 100.068 0.048954 101.12 0.048954C102.185 0.048954 103.222 0.140972 104.231 0.32328C105.24 0.50602 106.219 0.779484 107.168 1.14432C108.117 1.5085 108.996 1.93842 109.806 2.43384C110.616 2.92883 111.356 3.48912 112.025 4.11362L112.115 4.1981L112.036 4.2927L110.292 6.39464L110.204 6.50045L110.104 6.40714C109.446 5.79341 108.774 5.26544 108.085 4.8226C107.398 4.38084 106.695 4.02419 105.977 3.7531C105.257 3.48136 104.521 3.27772 103.771 3.14196C103.022 3.00619 102.254 2.93874 101.469 2.93874C100.848 2.93874 100.246 2.98874 99.6675 3.08981C99.0874 3.19044 98.5279 3.34172 97.9899 3.54299C97.4534 3.74405 96.9529 3.99769 96.49 4.30498C96.0273 4.61206 95.6018 4.97194 95.2133 5.38504C94.824 5.79836 94.4764 6.26793 94.1703 6.79309L94.1714 6.79352C93.8637 7.3217 93.598 7.90504 93.3742 8.5442C93.1508 9.18379 92.9827 9.88673 92.8705 10.6528C92.7582 11.4195 92.7016 12.2499 92.7016 13.1437C92.7016 14.0376 92.7582 14.8675 92.8705 15.6342C92.9827 16.4003 93.1508 17.1032 93.3742 17.7433C93.5984 18.3826 93.868 18.9662 94.183 19.4924C94.4976 20.0182 94.8577 20.4874 95.2631 20.9005C95.6696 21.3144 96.113 21.6745 96.5924 21.9812C97.0733 22.2885 97.5905 22.5425 98.1457 22.7436C98.702 22.9455 99.2859 23.0966 99.898 23.1976C100.509 23.2981 101.149 23.3487 101.818 23.3487ZM66.5562 18.925C66.5562 19.4351 66.503 19.931 66.3959 20.4113C66.2886 20.891 66.1283 21.3547 65.915 21.8012C65.6997 22.2512 65.4177 22.6708 65.0701 23.0584C64.7239 23.4452 64.3095 23.8025 63.8292 24.1303C63.3502 24.4572 62.8013 24.749 62.184 25.0059H62.1836C61.5666 25.2623 60.8801 25.4849 60.1236 25.673C59.3684 25.8614 58.5263 26.003 57.5979 26.0969C56.6693 26.1907 55.6573 26.2383 54.5628 26.2383C53.9445 26.2383 53.3318 26.2144 52.7255 26.1676C52.1229 26.1206 51.5242 26.0502 50.931 25.9558C50.341 25.8618 49.7648 25.7476 49.2026 25.6123C48.6373 25.4761 48.0896 25.3198 47.5613 25.1451C47.0303 24.9694 46.5178 24.7738 46.0232 24.5583C45.5315 24.3439 45.0596 24.1092 44.6074 23.8562C44.1546 23.6023 43.7336 23.3351 43.3436 23.0556C42.9518 22.7751 42.5914 22.4809 42.2618 22.1734L42.1719 22.0898L42.2508 21.995L43.9952 19.8924L44.0797 19.7909L44.1793 19.8767C44.8356 20.4432 45.5468 20.9423 46.3129 21.373C47.0799 21.8043 47.9012 22.1674 48.777 22.4626C49.6528 22.7576 50.5733 22.9791 51.5377 23.1274C52.5017 23.275 53.5106 23.3487 54.5628 23.3487C55.7294 23.3487 56.7241 23.2679 57.5471 23.1061C58.3619 22.9459 59.0066 22.7067 59.4804 22.3898C59.9513 22.0749 60.3039 21.7015 60.5374 21.2711C60.7709 20.8416 60.8874 20.3514 60.8874 19.801C60.8874 18.955 60.5202 18.2417 59.7863 17.6609C59.4101 17.3635 58.901 17.0679 58.2598 16.7746C57.6147 16.4796 56.8346 16.1867 55.9193 15.896L49.2895 13.7939V13.7934C47.0831 13.0862 45.4146 12.1824 44.2832 11.0823C43.7121 10.5263 43.2835 9.89384 42.9975 9.1853C42.712 8.4774 42.5687 7.69386 42.5687 6.83705C42.5687 6.3955 42.6213 5.96041 42.7258 5.5318C42.8301 5.10425 42.9863 4.68447 43.194 4.27287C43.4026 3.8602 43.6696 3.47145 43.9943 3.10618C44.3177 2.74221 44.6991 2.40259 45.1354 2.0884C45.5714 1.77507 46.0693 1.4932 46.629 1.24388C47.1861 0.995195 47.8016 0.779051 48.4753 0.596958C49.1498 0.414434 49.8934 0.27738 50.7061 0.18601C51.5171 0.0950718 52.3961 0.048954 53.3417 0.048954C53.9136 0.048954 54.4857 0.0726604 55.0568 0.119854C55.6251 0.166615 56.1946 0.237299 56.764 0.331684C57.8997 0.519381 58.9884 0.790043 60.0294 1.14238C60.5526 1.3193 61.0567 1.51518 61.5411 1.72874C62.0252 1.94316 62.4942 2.1774 62.9474 2.43104C63.4002 2.68511 63.8217 2.95167 64.2114 3.23117C64.6029 3.51218 64.964 3.80654 65.2933 4.11362L65.3832 4.19767L65.3046 4.2927L63.5597 6.39464L63.4755 6.49657L63.376 6.41015C62.7188 5.84362 62.0212 5.34431 61.2838 4.91311C60.5457 4.4819 59.7676 4.11858 58.9499 3.824C58.1321 3.52898 57.2558 3.30746 56.3223 3.15919C55.3894 3.01201 54.3954 2.93874 53.3417 2.93874C51.6233 2.93874 50.3391 3.23419 49.4895 3.8255C49.0695 4.11858 48.7547 4.44333 48.5461 4.80062C48.3409 5.15339 48.2377 5.53998 48.2377 5.96085C48.2377 6.19854 48.2572 6.41963 48.2965 6.62435C48.3351 6.82714 48.3933 7.01462 48.4699 7.18615C48.5474 7.35769 48.6504 7.52318 48.7798 7.68351C48.9101 7.84513 49.0682 8.00223 49.2543 8.15458C49.4421 8.30909 49.6584 8.45736 49.9037 8.59872C50.1511 8.74159 50.4299 8.87908 50.7402 9.01225C51.0522 9.14522 51.4023 9.28292 51.7892 9.42557C52.1749 9.56715 52.6015 9.71369 53.0676 9.86626L59.6614 11.9682C60.7292 12.3102 61.6812 12.7041 62.5182 13.1508C63.3577 13.5991 64.0846 14.1022 64.6988 14.6587C65.3173 15.2202 65.7815 15.8575 66.0912 16.5694C66.4006 17.2812 66.5562 18.0661 66.5562 18.925Z" fill="white"/>
<path fill-rule="evenodd" clip-rule="evenodd" d="M47.2119 35.8309C47.1831 35.8708 47.1218 35.8906 47.0282 35.8906H43.9434C43.5614 35.8906 43.2473 35.8413 43.002 35.7432C42.7569 35.6447 42.5603 35.5135 42.4125 35.3493C42.2644 35.1853 42.1614 34.9985 42.1043 34.7886C42.0466 34.5785 42.0176 34.3587 42.0176 34.129V30.7616C42.0176 30.5323 42.0515 30.311 42.1202 30.0975C42.189 29.8839 42.3006 29.6956 42.4556 29.5309C42.611 29.3674 42.811 29.2359 43.0567 29.1372C43.3018 29.0392 43.5973 28.99 43.9434 28.99H46.9629C47.0565 28.99 47.1164 29.0079 47.1415 29.0437C47.1666 29.0803 47.1793 29.1372 47.1793 29.2163V29.8369C47.1793 29.9218 47.1666 29.9794 47.1415 30.0089C47.1164 30.0382 47.0565 30.0531 46.9629 30.0531H44.0842C43.8102 30.0531 43.617 30.1089 43.5054 30.2203C43.3936 30.3319 43.3376 30.4927 43.3376 30.7028V31.7365H46.6058C46.6996 31.7365 46.7591 31.7531 46.7846 31.7854C46.8097 31.8188 46.8222 31.8807 46.8222 31.9729V32.514C46.8222 32.5929 46.8097 32.6502 46.7846 32.6862C46.7591 32.7226 46.6996 32.7405 46.6058 32.7405H43.3376V34.1708C43.3376 34.3802 43.3971 34.5386 43.5164 34.6461C43.6355 34.7543 43.8246 34.808 44.0842 34.808H47.0282C47.1286 34.808 47.1921 34.8241 47.2173 34.8575C47.2424 34.8907 47.2552 34.9537 47.2552 35.0463V35.6618C47.2552 35.7355 47.2409 35.7915 47.2119 35.8309Z" fill="white"/>
<path fill-rule="evenodd" clip-rule="evenodd" d="M55.6634 34.8878C55.9877 34.8878 56.2873 34.8534 56.5618 34.7844C56.8358 34.7156 57.0916 34.6383 57.3301 34.553C57.4305 34.5137 57.5013 34.5075 57.541 34.5331C57.5805 34.5601 57.6114 34.5993 57.6329 34.651L57.9142 35.2126C57.9647 35.3046 57.9829 35.3688 57.9683 35.4046C57.9541 35.4406 57.9177 35.4755 57.8599 35.508C57.4923 35.705 57.0987 35.8362 56.6809 35.9017C56.2618 35.9675 55.8583 36 55.469 36C54.3717 36 53.5442 35.7117 52.9852 35.1339C52.4259 34.5562 52.1465 33.6869 52.1465 32.5254C52.1465 31.9802 52.2291 31.4852 52.3952 31.0389C52.5613 30.5922 52.7922 30.2116 53.0882 29.8967C53.3835 29.5817 53.741 29.3371 54.1597 29.1634C54.5773 28.9895 55.0428 28.9027 55.5551 28.9027C55.8802 28.9027 56.2135 28.9292 56.556 28.9813C56.8989 29.0339 57.2466 29.1451 57.6007 29.3162C57.658 29.3423 57.696 29.3735 57.7142 29.4095C57.7322 29.4455 57.7196 29.5097 57.6762 29.6011L57.373 30.1722C57.3444 30.2383 57.3153 30.2808 57.2867 30.3002C57.258 30.32 57.2034 30.3135 57.1243 30.2808C56.886 30.1956 56.6425 30.128 56.394 30.0788C56.1452 30.0299 55.883 30.0051 55.6094 30.0051C55.2484 30.0051 54.9364 30.0741 54.673 30.2116C54.4097 30.3493 54.1932 30.5353 54.0234 30.7678C53.8545 31.0012 53.7281 31.2701 53.6453 31.5755C53.5625 31.8804 53.5208 32.1972 53.5208 32.5254C53.5208 32.8536 53.5547 33.16 53.6234 33.4457C53.6921 33.7313 53.8077 33.9806 53.97 34.1937C54.132 34.4075 54.3522 34.5762 54.6299 34.7012C54.9076 34.8253 55.2525 34.8878 55.6634 34.8878Z" fill="white"/>
<path fill-rule="evenodd" clip-rule="evenodd" d="M67.955 32.4562C67.955 32.128 67.9284 31.8151 67.8735 31.516C67.82 31.2175 67.7224 30.9535 67.5814 30.7236C67.4406 30.4939 67.2462 30.3122 66.997 30.1773C66.7485 30.0429 66.4292 29.9756 66.0397 29.9756C65.7072 29.9756 65.419 30.0394 65.1737 30.1674C64.9289 30.2952 64.7246 30.4715 64.5625 30.6941C64.3999 30.9176 64.2795 31.1751 64.2003 31.4671C64.1204 31.7595 64.0807 32.0722 64.0807 32.4068C64.0807 32.7876 64.1116 33.1324 64.1728 33.4406C64.234 33.7494 64.3408 34.0136 64.4926 34.2325C64.6437 34.453 64.8441 34.6221 65.093 34.7402C65.3418 34.8583 65.6506 34.9171 66.0184 34.9171C66.386 34.9171 66.6944 34.8486 66.9429 34.7111C67.1921 34.573 67.3921 34.3909 67.5443 34.164C67.6956 33.9375 67.8018 33.677 67.8632 33.382C67.9241 33.0865 67.955 32.7777 67.955 32.4562ZM69.3184 32.4167C69.3184 33.5591 69.0426 34.4413 68.4909 35.0648C67.9387 35.6882 67.1037 36 65.9856 36C64.8965 36 64.0807 35.6998 63.5402 35.0997C62.9989 34.4989 62.7285 33.6179 62.7285 32.4562C62.7285 31.8922 62.8094 31.3897 62.9719 30.9503C63.1341 30.5105 63.3616 30.1383 63.6539 29.833C63.946 29.5276 64.2923 29.2947 64.6922 29.1335C65.093 28.9729 65.5347 28.8928 66.0184 28.8928C66.559 28.8928 67.0365 28.9729 67.4513 29.1335C67.8666 29.2947 68.211 29.5276 68.486 29.833C68.7591 30.1383 68.9673 30.5088 69.1074 30.9451C69.2482 31.3815 69.3184 31.8724 69.3184 32.4167Z" fill="white"/>
<path fill-rule="evenodd" clip-rule="evenodd" d="M74.5996 29.1965C74.5996 29.1112 74.6194 29.0556 74.6593 29.0295C74.6988 29.0034 74.7619 28.99 74.8483 28.99H75.6598C75.7608 28.99 75.8289 29.0017 75.8654 29.0243C75.9016 29.0472 75.9199 29.1051 75.9199 29.1965V34.129C75.9199 34.3845 75.9903 34.5651 76.1308 34.6696C76.2714 34.7754 76.4645 34.8274 76.7105 34.8274H79.61C79.6892 34.8274 79.7398 34.8405 79.7613 34.8668C79.783 34.8933 79.7939 34.942 79.7939 35.0146V35.7038C79.7939 35.7693 79.783 35.8169 79.7613 35.8462C79.7398 35.876 79.6892 35.8906 79.61 35.8906H76.5042C76.1289 35.8906 75.8186 35.8413 75.5737 35.7432C75.3282 35.6447 75.1331 35.5135 74.9891 35.3493C74.8451 35.1853 74.7438 34.9985 74.6859 34.7886C74.6284 34.5785 74.5996 34.3587 74.5996 34.129V29.1965Z" fill="white"/>
<path fill-rule="evenodd" clip-rule="evenodd" d="M89.3912 32.4562C89.3912 32.128 89.3635 31.8151 89.3097 31.516C89.2558 31.2175 89.1586 30.9535 89.0176 30.7236C88.8768 30.4939 88.6815 30.3122 88.4332 30.1773C88.1843 30.0429 87.8654 29.9756 87.4759 29.9756C87.1434 29.9756 86.8552 30.0394 86.6099 30.1674C86.3644 30.2952 86.1608 30.4715 85.9983 30.6941C85.8361 30.9176 85.7157 31.1751 85.6356 31.4671C85.5566 31.7595 85.5169 32.0722 85.5169 32.4068C85.5169 32.7876 85.5476 33.1324 85.609 33.4406C85.6702 33.7494 85.7766 34.0136 85.9279 34.2325C86.0798 34.453 86.2799 34.6221 86.5284 34.7402C86.7775 34.8583 87.0859 34.9171 87.4542 34.9171C87.8216 34.9171 88.1306 34.8486 88.3791 34.7111C88.6281 34.573 88.8283 34.3909 88.9796 34.164C89.1315 33.9375 89.2375 33.677 89.2994 33.382C89.3603 33.0865 89.3912 32.7777 89.3912 32.4562ZM90.7546 32.4167C90.7546 33.5591 90.4784 34.4413 89.9266 35.0648C89.3749 35.6882 88.5399 36 87.4213 36C86.3318 36 85.5169 35.6998 84.9759 35.0997C84.4347 34.4989 84.1641 33.6179 84.1641 32.4562C84.1641 31.8922 84.2456 31.3897 84.4081 30.9503C84.5703 30.5105 84.7971 30.1383 85.0892 29.833C85.3813 29.5276 85.7277 29.2947 86.1283 29.1335C86.5284 28.9729 86.9702 28.8928 87.4542 28.8928C87.9952 28.8928 88.4727 28.9729 88.8875 29.1335C89.3024 29.2947 89.6468 29.5276 89.9215 29.833C90.1953 30.1383 90.4026 30.5088 90.5436 30.9451C90.6844 31.3815 90.7546 31.8724 90.7546 32.4167Z" fill="white"/>
<path fill-rule="evenodd" clip-rule="evenodd" d="M99.2707 34.9171C99.3203 34.9171 99.393 34.9156 99.487 34.9126C99.58 34.9094 99.6817 34.9029 99.7898 34.8928C99.898 34.8829 100.013 34.8652 100.136 34.8383C100.259 34.8118 100.377 34.7784 100.493 34.7394V32.8794C100.45 32.8734 100.405 32.8695 100.358 32.8695H100.212C99.7574 32.8695 99.2917 32.962 98.8162 33.1451C98.7297 33.1783 98.6662 33.1966 98.6265 33.1996C98.587 33.2031 98.5492 33.1716 98.5132 33.1063L98.264 32.4857C98.2346 32.4333 98.226 32.3887 98.2372 32.353C98.2477 32.3172 98.2852 32.2823 98.3507 32.2497C98.5956 32.1181 98.8879 32.0133 99.2269 31.9347C99.5662 31.8562 99.9014 31.8164 100.233 31.8164C100.421 31.8164 100.574 31.8213 100.694 31.8315C100.812 31.8409 100.93 31.8562 101.045 31.8756C101.362 31.9282 101.577 32.0263 101.689 32.1711C101.801 32.3152 101.856 32.5383 101.856 32.8402V35.1339C101.856 35.2126 101.842 35.2807 101.814 35.3356C101.785 35.3914 101.731 35.4425 101.651 35.4882C101.449 35.6 101.227 35.6897 100.986 35.7593C100.744 35.828 100.506 35.8806 100.271 35.9166C100.037 35.9526 99.8208 35.9752 99.6222 35.9853C99.4239 35.9953 99.2632 36 99.1407 36C98.0438 36 97.2163 35.708 96.657 35.124C96.0978 34.5398 95.8184 33.6671 95.8184 32.5055C95.8184 31.9608 95.8943 31.4671 96.0454 31.024C96.1976 30.5807 96.4193 30.2021 96.7113 29.8866C97.0036 29.5718 97.3607 29.3294 97.782 29.1578C98.2046 28.9878 98.6857 28.9027 99.2269 28.9027C99.5587 28.9027 99.907 28.9292 100.271 28.9813C100.636 29.0339 100.995 29.1451 101.348 29.3162C101.406 29.3423 101.444 29.3735 101.462 29.4095C101.48 29.4455 101.464 29.5097 101.413 29.6011L101.121 30.2116C101.085 30.2775 101.052 30.3187 101.023 30.3349C100.995 30.3514 100.941 30.3465 100.861 30.32C100.623 30.2346 100.367 30.1674 100.093 30.1183C99.8184 30.0691 99.5416 30.0446 99.2596 30.0446C98.8844 30.0446 98.5655 30.1118 98.3018 30.2463C98.0389 30.3812 97.8258 30.5626 97.6635 30.7893C97.5011 31.016 97.3824 31.2809 97.3064 31.5834C97.2311 31.8856 97.1923 32.2017 97.1923 32.5303C97.1923 32.8658 97.2234 33.1796 97.2841 33.472C97.3457 33.7651 97.4541 34.0179 97.609 34.2319C97.7648 34.4454 97.9771 34.6135 98.2477 34.735C98.5181 34.8564 98.8593 34.9171 99.2707 34.9171Z" fill="white"/>
<path fill-rule="evenodd" clip-rule="evenodd" d="M109.338 32.16L110.172 30.6043L110.984 29.1474C111.02 29.0885 111.054 29.0472 111.086 29.0243C111.119 29.0017 111.171 28.99 111.243 28.99H112.293C112.358 28.99 112.394 29.0045 112.401 29.0342C112.408 29.0637 112.405 29.0952 112.39 29.128L109.967 33.2327V35.7133C109.967 35.7857 109.952 35.8335 109.923 35.8561C109.895 35.8794 109.84 35.8906 109.761 35.8906H108.863C108.79 35.8906 108.738 35.8794 108.705 35.8561C108.673 35.8335 108.657 35.7857 108.657 35.7133V33.2424L106.179 29.1374C106.164 29.1051 106.164 29.0719 106.179 29.0394C106.193 29.0064 106.229 28.99 106.287 28.99H107.38C107.459 28.99 107.515 29.0017 107.548 29.0243C107.58 29.0472 107.614 29.092 107.651 29.1566L108.494 30.6636L109.284 32.16H109.338Z" fill="white"/>
<path d="M35.466 1.57031C35.0769 0.65058 34.1672 0.00150883 33.1137 0.00150883H33.1133C34.1672 0.00150883 35.0769 0.65058 35.466 1.57031Z" fill="#0095DA"/>
<path d="M33.1133 35.8164H33.1137C34.1674 35.8164 35.0769 35.1671 35.466 34.2474C35.0769 35.1671 34.1672 35.8164 33.1133 35.8164Z" fill="#0095DA"/>
<g clip-path="url(#clip0_7265_45351)">
<rect x="3.04883" width="20.6182" height="35.82" fill="white"/>
<path d="M3.04761 22.6501C3.04761 18.6391 5.36814 15.164 8.73058 13.5019V11.3235V0.000270844H2.55423C1.14943 0.000270844 0 1.15425 0 2.56488V33.2514C0 34.662 1.14943 35.8164 2.55423 35.8164H8.73058V34.6183V31.7983C5.36814 30.1364 3.04761 26.6607 3.04761 22.6501Z" fill="#0095DA"/>
<path d="M13.1958 13.955C12.6711 13.955 12.1582 14.0046 11.6588 14.0947V16.8368V18.1695C12.323 18.6345 12.7569 19.4064 12.7569 20.2809C12.7569 21.7016 11.6099 22.8543 10.1948 22.8543C8.77964 22.8543 7.63215 21.7016 7.63215 20.2809C7.63215 19.4064 8.06694 18.6345 8.73029 18.1695V17.1756V15.2034C6.21983 16.7272 4.53711 19.4943 4.53711 22.6496C4.53711 25.9587 6.38851 28.8414 9.10499 30.3102L10.2181 29.1922L14.7865 24.6057C14.7667 24.4768 14.7564 24.3453 14.7564 24.2117C14.7564 22.7905 15.9037 21.6385 17.3184 21.6385C18.7339 21.6385 19.881 22.7905 19.881 24.2117C19.881 25.6323 18.7339 26.7847 17.3184 26.7847C17.1439 26.7847 16.9733 26.7669 16.8083 26.733L13.2885 30.2676L12.2672 31.2933C12.5722 31.3261 12.882 31.3438 13.1958 31.3438C17.9701 31.3438 21.8545 27.4439 21.8545 22.6496C21.8545 17.8553 17.9701 13.955 13.1958 13.955Z" fill="#0095DA"/>
<path d="M35.4655 1.56908C35.0764 0.649345 34.1667 0.000274658 33.1127 0.000274658H11.6582V11.4084V12.561C12.2209 12.4608 12.7993 12.4087 13.3903 12.4087C13.5521 12.4087 13.7126 12.4132 13.8723 12.4208C13.9249 12.4233 13.977 12.4283 14.0296 12.4315C14.1363 12.4382 14.2429 12.4458 14.3487 12.4561C14.4105 12.4619 14.4715 12.4697 14.5328 12.4766C14.6288 12.4878 14.7243 12.4994 14.8191 12.5132C14.8837 12.5225 14.9477 12.533 15.0118 12.5438C15.1026 12.5587 15.1932 12.5748 15.2833 12.5923C15.3483 12.605 15.4132 12.6182 15.4778 12.6322C15.566 12.6511 15.6537 12.6716 15.7411 12.6931C15.8052 12.7087 15.8692 12.7244 15.9329 12.7414C16.0211 12.7647 16.1085 12.7903 16.1956 12.8162C16.2566 12.8341 16.3175 12.8513 16.378 12.8705C16.4714 12.9002 16.5634 12.9326 16.6557 12.9651C16.7083 12.9836 16.7615 13.0007 16.8137 13.0201C16.9525 13.0713 17.0901 13.1256 17.2259 13.1832C17.2813 13.2065 17.3352 13.2323 17.3899 13.2565C17.4729 13.2935 17.5562 13.3302 17.638 13.3694C17.7039 13.4006 17.7687 13.4344 17.8337 13.4672C17.9026 13.5021 17.9715 13.5366 18.0393 13.573C18.108 13.6099 18.1756 13.6482 18.2432 13.6864C18.3052 13.7217 18.367 13.7568 18.4281 13.7932C18.4979 13.8346 18.5668 13.8773 18.6352 13.9204C18.6921 13.9559 18.7483 13.9924 18.8044 14.0292C18.8745 14.0755 18.9447 14.1223 19.0138 14.1704C19.0647 14.2059 19.1147 14.2421 19.1649 14.2783C19.2368 14.3303 19.3085 14.3824 19.3788 14.4361C19.4211 14.4684 19.4623 14.502 19.5042 14.535C19.5801 14.5951 19.6563 14.6552 19.7308 14.7175C19.7495 14.7332 19.7675 14.7498 19.786 14.7656C20.0759 15.0125 20.3512 15.2756 20.6109 15.5538C20.6257 15.5698 20.6407 15.5851 20.6555 15.601C20.7326 15.6846 20.8073 15.7702 20.8813 15.8564C20.9025 15.8812 20.9242 15.9055 20.9453 15.9307C21.0169 16.0156 21.0869 16.1023 21.1558 16.19C21.1766 16.2165 21.1976 16.243 21.2184 16.2699C21.2873 16.3594 21.3547 16.4499 21.4206 16.5415C21.438 16.566 21.4552 16.5904 21.4725 16.6149C21.5404 16.7115 21.6069 16.8087 21.6715 16.9074C21.6822 16.9242 21.6927 16.941 21.7037 16.9578C22.1511 17.6525 22.5142 18.4066 22.7793 19.2061C22.7821 19.2145 22.7851 19.2226 22.7879 19.231C22.8295 19.3578 22.8681 19.4855 22.9048 19.6142L22.9164 19.6554C22.9522 19.7836 22.9857 19.9127 23.0166 20.0432C23.0192 20.0542 23.0218 20.0659 23.0244 20.0771C23.0559 20.2131 23.0853 20.3497 23.1113 20.4878C23.2621 21.1852 23.3435 21.9081 23.3435 22.6501C23.3435 28.2689 18.791 32.8404 13.1952 32.8404C12.6729 32.8404 12.1593 32.8003 11.6582 32.7238V35.3531V35.8164H33.1127C34.1667 35.8164 35.0764 35.1671 35.4655 34.2474C35.5951 33.9407 35.667 33.6039 35.667 33.2514V2.56488C35.667 2.21233 35.5951 1.87573 35.4655 1.56908Z" fill="#15B24B"/>
</g>
<path fill-rule="evenodd" clip-rule="evenodd" d="M115.534 27.9831C115.41 28.2072 115.236 28.3824 115.012 28.5074C114.788 28.6328 114.554 28.6958 114.311 28.6958C114.067 28.6958 113.833 28.6328 113.609 28.5074C113.385 28.3824 113.211 28.2072 113.086 27.9831C112.962 27.759 112.899 27.525 112.899 27.28C112.899 27.0347 112.963 26.7979 113.089 26.5706C113.216 26.3441 113.392 26.1689 113.617 26.0469C113.841 25.9245 114.073 25.8631 114.311 25.8631C114.546 25.8631 114.777 25.9245 115.003 26.0469C115.228 26.1689 115.404 26.3441 115.53 26.5706C115.656 26.7979 115.719 27.0347 115.719 27.28C115.719 27.525 115.658 27.759 115.534 27.9831ZM115.773 26.4288C115.623 26.1572 115.412 25.9473 115.142 25.8019C114.871 25.6551 114.595 25.5819 114.311 25.5819C114.027 25.5819 113.75 25.6551 113.479 25.8019C113.21 25.9473 112.998 26.1572 112.847 26.4288C112.695 26.7016 112.619 26.9854 112.619 27.28C112.619 27.5726 112.694 27.8543 112.843 28.1236C112.992 28.3939 113.201 28.6033 113.469 28.7522C113.738 28.9022 114.018 28.9766 114.311 28.9766C114.603 28.9766 114.883 28.9022 115.152 28.7522C115.42 28.6033 115.628 28.3939 115.776 28.1236C115.925 27.8543 116 27.5726 116 27.28C116 26.9854 115.924 26.7016 115.773 26.4288Z" fill="white"/>
<path fill-rule="evenodd" clip-rule="evenodd" d="M114.218 27.1919H113.862V26.6435H114.196C114.339 26.6435 114.437 26.6545 114.491 26.6752C114.544 26.6961 114.585 26.7273 114.615 26.7702C114.645 26.8124 114.66 26.8609 114.66 26.9148C114.66 26.998 114.629 27.0654 114.567 27.1156C114.505 27.1667 114.389 27.1919 114.218 27.1919ZM114.605 27.5003C114.567 27.4626 114.515 27.4307 114.451 27.4037C114.608 27.3915 114.734 27.3363 114.829 27.237C114.924 27.1389 114.972 27.0223 114.972 26.8896C114.972 26.7945 114.944 26.706 114.887 26.6219C114.83 26.5377 114.754 26.4793 114.658 26.4457C114.562 26.4118 114.408 26.3948 114.194 26.3948H113.568V28.2188H113.862V27.4453H114.035C114.138 27.4443 114.216 27.4652 114.269 27.5063C114.347 27.5632 114.451 27.7054 114.578 27.9319L114.74 28.2188H115.096L114.874 27.8617C114.768 27.6921 114.678 27.5718 114.605 27.5003Z" fill="white"/>
<path d="M11.2666 20.331C11.2666 20.9336 10.7801 21.4219 10.1803 21.4219C9.58026 21.4219 9.09375 20.9336 9.09375 20.331C9.09375 19.7285 9.58026 19.2402 10.1803 19.2402C10.7801 19.2402 11.2666 19.7285 11.2666 20.331Z" fill="#0094D7"/>
<defs>
<clipPath id="clip0_7265_45351">
<rect width="35.6678" height="35.8162" fill="white"/>
</clipPath>
</defs>
</svg>
