<svg width="21" height="20" viewBox="0 0 21 20" fill="none" xmlns="http://www.w3.org/2000/svg">
<path d="M14.668 5.75C14.668 7.9375 10.918 12 10.918 12C10.918 12 7.16797 7.9375 7.16797 5.75C7.16797 3.6875 8.82422 2 10.918 2C12.9805 2 14.668 3.6875 14.668 5.75ZM6.91797 8.28125V16L1.91797 18V8L6.07422 6.34375C6.23047 6.96875 6.54297 7.625 6.91797 8.28125ZM13.918 9.90625V18L7.91797 16V9.90625C9.29297 11.9375 10.918 13.6875 10.918 13.6875C10.918 13.6875 12.5117 11.9375 13.918 9.90625ZM14.918 8.28125C14.9805 8.1875 15.043 8.0625 15.1055 7.9375L19.918 6V16L14.918 18V8.28125ZM10.918 6.75C11.6055 6.75 12.168 6.21875 12.168 5.5C12.168 4.8125 11.6055 4.25 10.918 4.25C10.1992 4.25 9.66797 4.8125 9.66797 5.5C9.66797 6.21875 10.1992 6.75 10.918 6.75Z" fill="white"/>
</svg>
