<svg width="91" height="28" viewBox="0 0 91 28" fill="none" xmlns="http://www.w3.org/2000/svg">
<g clip-path="url(#clip0_7218_20910)">
<path fill-rule="evenodd" clip-rule="evenodd" d="M57.4247 2.83319H68.3067H68.3597L68.3897 2.7891C68.6348 2.43311 68.8974 2.08566 69.1778 1.74743C69.4581 1.40869 69.7544 1.08169 70.0649 0.76726L70.0944 0.737257V0.69636V0.687645V0.585739H69.9925H53.3724H53.2708V0.687645V19.7634V19.8649H53.3724H69.9925H70.0944V19.7634V19.7545V19.7134L70.0649 19.6837C69.7544 19.3693 69.4581 19.042 69.1778 18.7034C68.8978 18.3653 68.6348 18.0179 68.3897 17.6619L68.3597 17.6177H68.3067H57.4247V11.1448H65.9576H66.0657L66.059 11.0366C66.0504 10.8988 66.0436 10.7639 66.039 10.6323C66.035 10.5046 66.0327 10.369 66.0327 10.2255C66.0327 10.0165 66.038 9.81269 66.0474 9.6139C66.0575 9.40993 66.0724 9.20796 66.0913 9.00851L66.1017 8.89721H65.9901H57.4247V2.83319ZM79.5069 18.1627C80.7305 18.1627 81.9038 17.9517 83.0272 17.5293C83.5876 17.3185 84.1366 17.0409 84.6731 16.6972C85.2109 16.3531 85.7364 15.9421 86.2495 15.4651L86.3278 15.3923L86.3962 15.4745L87.7587 17.1098L87.8199 17.1835L87.7502 17.2486C87.2275 17.7345 86.6497 18.1704 86.0171 18.5552C85.3848 18.9406 84.6974 19.2751 83.9569 19.5585C83.2164 19.842 82.4519 20.0548 81.6638 20.1968C80.8752 20.3388 80.0653 20.4102 79.2342 20.4102C78.3771 20.4102 77.5607 20.3548 76.7854 20.2451C76.0106 20.1356 75.2772 19.9705 74.5857 19.7508C73.8931 19.5306 73.2507 19.2577 72.66 18.9327C72.0686 18.6064 71.5269 18.2277 71.0352 17.7957C70.5427 17.3634 70.1072 16.8803 69.7279 16.3477C69.3495 15.8152 69.0266 15.2318 68.7607 14.5977H68.7602C68.4942 13.9653 68.2943 13.2833 68.1617 12.5529C68.0284 11.8236 67.9622 11.0478 67.9622 10.2255C67.9622 9.40339 68.0275 8.62737 68.1579 7.89811C68.2889 7.16868 68.4848 6.48736 68.7464 5.85397C69.008 5.22042 69.3251 4.63697 69.6971 4.10398C70.0695 3.57083 70.4971 3.08812 70.9796 2.65586C71.4622 2.2236 71.9944 1.84447 72.5741 1.51881C73.1539 1.19332 73.784 0.920452 74.4627 0.699881C75.1405 0.480484 75.8542 0.31539 76.604 0.205774C77.3545 0.0958233 78.1406 0.0406799 78.9621 0.0406799C79.7933 0.0406799 80.603 0.112249 81.3913 0.254045C82.1789 0.396175 82.9439 0.60887 83.6848 0.892628C84.4255 1.17588 85.1119 1.51026 85.7445 1.89559C86.3772 2.28058 86.9549 2.71636 87.4772 3.20209L87.5474 3.26779L87.4859 3.34137L86.124 4.97621L86.0557 5.05851L85.9771 4.98593C85.4636 4.50859 84.9386 4.09795 84.4008 3.75352C83.8642 3.40992 83.3153 3.13253 82.7544 2.92168C82.1922 2.71033 81.6177 2.55194 81.032 2.44635C80.4468 2.34076 79.8476 2.28829 79.2342 2.28829C78.7493 2.28829 78.2799 2.32718 77.8278 2.40579C77.3748 2.48406 76.9379 2.60172 76.5178 2.75826C76.0989 2.91464 75.7081 3.11192 75.3466 3.35092C74.9853 3.58976 74.653 3.86967 74.3497 4.19097C74.0457 4.51244 73.7742 4.87766 73.5353 5.28612L73.5361 5.28645C73.2958 5.69726 73.0884 6.15097 72.9136 6.64809C72.7391 7.14555 72.6079 7.69229 72.5203 8.28813C72.4326 8.88448 72.3884 9.53027 72.3884 10.2255C72.3884 10.9207 72.4326 11.5662 72.5203 12.1625C72.6079 12.7584 72.7391 13.3051 72.9136 13.8029C73.0887 14.3002 73.2992 14.7541 73.5452 15.1634C73.7908 15.5723 74.072 15.9372 74.3886 16.2585C74.706 16.5805 75.0522 16.8606 75.4266 17.0991C75.8021 17.3381 76.206 17.5357 76.6395 17.6921C77.0738 17.8491 77.5298 17.9666 78.0078 18.0452C78.4847 18.1233 78.9844 18.1627 79.5069 18.1627ZM51.9724 14.7221C51.9724 15.1188 51.9309 15.5045 51.8473 15.8781C51.7635 16.2512 51.6383 16.6118 51.4717 16.9591C51.3036 17.3091 51.0834 17.6354 50.812 17.9369C50.5417 18.2378 50.2181 18.5157 49.843 18.7706C49.469 19.0249 49.0403 19.2518 48.5584 19.4516H48.5581C48.0763 19.6511 47.5402 19.8242 46.9495 19.9705C46.3598 20.117 45.7022 20.2271 44.9773 20.3002C44.2522 20.3731 43.4619 20.4102 42.6072 20.4102C42.1244 20.4102 41.646 20.3916 41.1726 20.3552C40.702 20.3186 40.2345 20.2638 39.7713 20.1904C39.3106 20.1173 38.8607 20.0285 38.4216 19.9233C37.9802 19.8173 37.5526 19.6958 37.14 19.5599C36.7254 19.4233 36.3252 19.2711 35.939 19.1035C35.5551 18.9367 35.1866 18.7542 34.8335 18.5574C34.4799 18.36 34.1511 18.1522 33.8466 17.9348C33.5406 17.7165 33.2593 17.4878 33.0019 17.2486L32.9316 17.1835L32.9933 17.1098L34.3554 15.4745L34.4214 15.3955L34.4992 15.4622C35.0116 15.9029 35.567 16.291 36.1652 16.6261C36.7641 16.9615 37.4055 17.2439 38.0893 17.4735C38.7732 17.703 39.492 17.8753 40.245 17.9906C40.9978 18.1054 41.7856 18.1627 42.6072 18.1627C43.5182 18.1627 44.2949 18.0999 44.9375 17.974C45.5738 17.8495 46.0772 17.6634 46.4473 17.4169C46.8149 17.172 47.0902 16.8815 47.2726 16.5468C47.4549 16.2128 47.5459 15.8315 47.5459 15.4034C47.5459 14.7454 47.2592 14.1906 46.686 13.7389C46.3923 13.5076 45.9948 13.2776 45.4941 13.0495C44.9903 12.8201 44.3812 12.5923 43.6665 12.3662L38.4895 10.7312V10.7308C36.7666 10.1808 35.4637 9.47781 34.5803 8.62217C34.1343 8.18974 33.7997 7.69782 33.5763 7.14672C33.3534 6.59614 33.2415 5.98672 33.2415 5.32031C33.2415 4.97688 33.2825 4.63848 33.3642 4.30511C33.4456 3.97258 33.5676 3.64608 33.7298 3.32595C33.8927 3.00498 34.1012 2.70262 34.3547 2.41853C34.6072 2.13544 34.905 1.87129 35.2457 1.62692C35.5862 1.38321 35.975 1.16399 36.4121 0.970064C36.8471 0.776646 37.3277 0.608534 37.8537 0.466906C38.3804 0.324942 38.9611 0.218344 39.5957 0.14728C40.229 0.0765495 40.9154 0.0406799 41.6537 0.0406799C42.1003 0.0406799 42.5471 0.0591183 42.993 0.0958233C43.4367 0.132195 43.8815 0.18717 44.3261 0.260582C45.2129 0.406569 46.063 0.617083 46.8759 0.891121C47.2845 1.02873 47.6781 1.18108 48.0563 1.34718C48.4344 1.51395 48.8005 1.69614 49.1545 1.89341C49.508 2.09102 49.8372 2.29835 50.1415 2.51574C50.4472 2.7343 50.7292 2.96325 50.9862 3.20209L51.0565 3.26746L50.9951 3.34137L49.6326 4.97621L49.5669 5.05549L49.4891 4.98828C48.976 4.54764 48.4312 4.15929 47.8554 3.82391C47.2791 3.48853 46.6715 3.20594 46.033 2.97683C45.3944 2.74737 44.7101 2.57507 43.9812 2.45976C43.2527 2.34528 42.4765 2.28829 41.6537 2.28829C40.3119 2.28829 39.3091 2.51808 38.6457 2.978C38.3177 3.20594 38.0719 3.45853 37.909 3.73642C37.7488 4.01079 37.6682 4.31148 37.6682 4.63882C37.6682 4.82369 37.6835 4.99565 37.7141 5.15488C37.7443 5.3126 37.7897 5.45842 37.8495 5.59183C37.91 5.72525 37.9905 5.85397 38.0915 5.97867C38.1932 6.10437 38.3167 6.22656 38.462 6.34506C38.6087 6.46523 38.7776 6.58055 38.9691 6.6905C39.1623 6.80162 39.38 6.90856 39.6223 7.01214C39.866 7.11555 40.1393 7.22265 40.4414 7.33361C40.7426 7.44372 41.0757 7.5577 41.4397 7.67636L46.5885 9.3112C47.4224 9.5772 48.1658 9.88358 48.8193 10.231C49.4749 10.5797 50.0425 10.971 50.5221 11.4038C51.005 11.8406 51.3675 12.3362 51.6093 12.89C51.8509 13.4436 51.9724 14.054 51.9724 14.7221Z" fill="#57595B"/>
<path fill-rule="evenodd" clip-rule="evenodd" d="M36.8666 27.8715C36.8441 27.9025 36.7962 27.918 36.7231 27.918H34.3144C34.0161 27.918 33.7708 27.8796 33.5792 27.8033C33.3879 27.7267 33.2344 27.6247 33.1189 27.4969C33.0033 27.3694 32.9228 27.2241 32.8782 27.0608C32.8332 26.8974 32.8105 26.7264 32.8105 26.5478V23.9287C32.8105 23.7504 32.837 23.5783 32.8906 23.4122C32.9444 23.2461 33.0316 23.0996 33.1526 22.9715C33.2739 22.8443 33.4301 22.7421 33.622 22.6653C33.8133 22.5891 34.0441 22.5508 34.3144 22.5508H36.6722C36.7453 22.5508 36.792 22.5648 36.8116 22.5926C36.8312 22.6211 36.8411 22.6653 36.8411 22.7268V23.2095C36.8411 23.2756 36.8312 23.3203 36.8116 23.3433C36.792 23.3661 36.7453 23.3777 36.6722 23.3777H34.4243C34.2103 23.3777 34.0595 23.4211 33.9724 23.5077C33.8851 23.5945 33.8413 23.7196 33.8413 23.883V24.687H36.3934C36.4666 24.687 36.513 24.6999 36.5329 24.7251C36.5525 24.751 36.5623 24.7991 36.5623 24.8709V25.2917C36.5623 25.3531 36.5525 25.3977 36.5329 25.4256C36.513 25.454 36.4666 25.4679 36.3934 25.4679H33.8413V26.5803C33.8413 26.7432 33.8877 26.8664 33.9809 26.95C34.0739 27.0342 34.2215 27.0759 34.4243 27.0759H36.7231C36.8016 27.0759 36.8512 27.0885 36.8708 27.1145C36.8904 27.1403 36.9004 27.1892 36.9004 27.2613V27.74C36.9004 27.7973 36.8892 27.8409 36.8666 27.8715Z" fill="#57595B"/>
<path fill-rule="evenodd" clip-rule="evenodd" d="M43.465 27.135C43.7182 27.135 43.9522 27.1082 44.1665 27.0545C44.3805 27.0011 44.5802 26.9409 44.7664 26.8745C44.8448 26.844 44.9001 26.8392 44.9311 26.8591C44.962 26.88 44.9861 26.9106 45.0029 26.9508L45.2226 27.3876C45.2619 27.4591 45.2762 27.5091 45.2648 27.5369C45.2537 27.5649 45.2252 27.592 45.1802 27.6174C44.8931 27.7705 44.5858 27.8726 44.2595 27.9236C43.9322 27.9747 43.6172 28 43.3132 28C42.4564 28 41.8102 27.7757 41.3736 27.3264C40.9369 26.877 40.7188 26.2009 40.7188 25.2975C40.7188 24.8735 40.7833 24.4885 40.913 24.1413C41.0427 23.7939 41.223 23.4979 41.4541 23.253C41.6847 23.008 41.9638 22.8178 42.2908 22.6827C42.6169 22.5474 42.9804 22.4799 43.3804 22.4799C43.6343 22.4799 43.8945 22.5005 44.162 22.541C44.4298 22.5819 44.7012 22.6684 44.9777 22.8015C45.0225 22.8218 45.0521 22.8461 45.0664 22.8741C45.0805 22.9021 45.0706 22.952 45.0367 23.0231L44.7999 23.4672C44.7776 23.5187 44.7549 23.5517 44.7326 23.5668C44.7101 23.5822 44.6675 23.5772 44.6057 23.5517C44.4197 23.4855 44.2295 23.4329 44.0354 23.3947C43.8412 23.3566 43.6364 23.3373 43.4228 23.3373C43.1409 23.3373 42.8973 23.391 42.6916 23.4979C42.486 23.605 42.3169 23.7496 42.1844 23.9305C42.0525 24.112 41.9538 24.3212 41.8891 24.5587C41.8244 24.7959 41.7919 25.0422 41.7919 25.2975C41.7919 25.5528 41.8184 25.7911 41.872 26.0134C41.9256 26.2354 42.016 26.4294 42.1427 26.5951C42.2692 26.7614 42.4411 26.8926 42.658 26.9898C42.8748 27.0864 43.1441 27.135 43.465 27.135Z" fill="#57595B"/>
<path fill-rule="evenodd" clip-rule="evenodd" d="M53.0636 25.2437C53.0636 24.9884 53.0428 24.7451 52.9999 24.5124C52.9582 24.2803 52.8819 24.075 52.7718 23.8961C52.6619 23.7175 52.5101 23.5762 52.3155 23.4713C52.1215 23.3667 51.8721 23.3144 51.568 23.3144C51.3084 23.3144 51.0833 23.364 50.8918 23.4635C50.7006 23.5629 50.5411 23.7 50.4145 23.8732C50.2875 24.047 50.1935 24.2473 50.1317 24.4744C50.0693 24.7018 50.0383 24.945 50.0383 25.2053C50.0383 25.5015 50.0625 25.7697 50.1102 26.0093C50.158 26.2495 50.2414 26.455 50.3599 26.6253C50.4779 26.7967 50.6344 26.9283 50.8288 27.0202C51.023 27.112 51.2642 27.1578 51.5514 27.1578C51.8384 27.1578 52.0792 27.1045 52.2733 26.9975C52.4679 26.8901 52.624 26.7485 52.7429 26.572C52.861 26.3958 52.9439 26.1932 52.9919 25.9637C53.0395 25.7339 53.0636 25.4938 53.0636 25.2437ZM54.1282 25.213C54.1282 26.1015 53.9129 26.7877 53.482 27.2726C53.0509 27.7575 52.3988 28 51.5257 28C50.6753 28 50.0383 27.7665 49.6162 27.2997C49.1936 26.8324 48.9824 26.1473 48.9824 25.2437C48.9824 24.8051 49.0456 24.4142 49.1725 24.0725C49.2991 23.7304 49.4768 23.4409 49.705 23.2034C49.9331 22.9659 50.2036 22.7847 50.5158 22.6594C50.8288 22.5345 51.1737 22.4721 51.5514 22.4721C51.9735 22.4721 52.3464 22.5345 52.6703 22.6594C52.9946 22.7847 53.2635 22.9659 53.4782 23.2034C53.6915 23.4409 53.8541 23.729 53.9635 24.0684C54.0734 24.4078 54.1282 24.7897 54.1282 25.213Z" fill="#57595B"/>
<path fill-rule="evenodd" clip-rule="evenodd" d="M58.252 22.7114C58.252 22.645 58.2674 22.6018 58.2985 22.5815C58.3294 22.5612 58.3786 22.5508 58.4462 22.5508H59.0798C59.1587 22.5508 59.2118 22.5599 59.2403 22.5775C59.2686 22.5953 59.2829 22.6404 59.2829 22.7114V26.5478C59.2829 26.7466 59.3379 26.887 59.4476 26.9683C59.5574 27.0506 59.7082 27.091 59.9002 27.091H62.1644C62.2262 27.091 62.2658 27.1012 62.2825 27.1217C62.2994 27.1423 62.308 27.1802 62.308 27.2366V27.7727C62.308 27.8236 62.2994 27.8606 62.2825 27.8834C62.2658 27.9066 62.2262 27.918 62.1644 27.918H59.7392C59.4461 27.918 59.2038 27.8796 59.0126 27.8033C58.8209 27.7267 58.6685 27.6247 58.5561 27.4969C58.4437 27.3694 58.3646 27.2241 58.3193 27.0608C58.2744 26.8974 58.252 26.7264 58.252 26.5478V22.7114Z" fill="#57595B"/>
<path fill-rule="evenodd" clip-rule="evenodd" d="M69.8024 25.2437C69.8024 24.9884 69.7808 24.7451 69.7387 24.5124C69.6966 24.2803 69.6207 24.075 69.5106 23.8961C69.4007 23.7175 69.2482 23.5762 69.0543 23.4713C68.8599 23.3667 68.6109 23.3144 68.3068 23.3144C68.0472 23.3144 67.8221 23.364 67.6306 23.4635C67.4389 23.5629 67.2798 23.7 67.153 23.8732C67.0263 24.047 66.9323 24.2473 66.8698 24.4744C66.8081 24.7018 66.7771 24.945 66.7771 25.2053C66.7771 25.5015 66.8011 25.7697 66.849 26.0093C66.8968 26.2495 66.9799 26.455 67.098 26.6253C67.2167 26.7967 67.3728 26.9283 67.5669 27.0202C67.7615 27.112 68.0023 27.1578 68.2898 27.1578C68.5767 27.1578 68.818 27.1045 69.0121 26.9975C69.2065 26.8901 69.3628 26.7485 69.481 26.572C69.5996 26.3958 69.6824 26.1932 69.7307 25.9637C69.7782 25.7339 69.8024 25.4938 69.8024 25.2437ZM70.867 25.213C70.867 26.1015 70.6513 26.7877 70.2205 27.2726C69.7896 27.7575 69.1376 28 68.2642 28C67.4134 28 66.7771 27.7665 66.3546 27.2997C65.932 26.8324 65.7207 26.1473 65.7207 25.2437C65.7207 24.8051 65.7844 24.4142 65.9112 24.0725C66.0379 23.7304 66.2151 23.4409 66.4431 23.2034C66.6712 22.9659 66.9417 22.7847 67.2545 22.6594C67.5669 22.5345 67.9119 22.4721 68.2898 22.4721C68.7123 22.4721 69.0851 22.5345 69.4091 22.6594C69.733 22.7847 70.002 22.9659 70.2165 23.2034C70.4303 23.4409 70.5922 23.729 70.7023 24.0684C70.8122 24.4078 70.867 24.7897 70.867 25.213Z" fill="#57595B"/>
<path fill-rule="evenodd" clip-rule="evenodd" d="M77.5181 27.1578C77.5568 27.1578 77.6136 27.1566 77.687 27.1543C77.7596 27.1517 77.839 27.1467 77.9235 27.1388C78.0079 27.1311 78.0979 27.1174 78.1938 27.0964C78.2896 27.0758 78.3823 27.0498 78.4728 27.0195V25.5729C78.4388 25.5682 78.4036 25.5652 78.3669 25.5652H78.2527C77.8981 25.5652 77.5345 25.6371 77.1632 25.7795C77.0956 25.8054 77.046 25.8196 77.015 25.8219C76.9842 25.8246 76.9547 25.8002 76.9265 25.7494L76.732 25.2667C76.709 25.2259 76.7023 25.1912 76.711 25.1634C76.7192 25.1356 76.7486 25.1084 76.7997 25.0831C76.9909 24.9807 77.2191 24.8993 77.4839 24.8381C77.7488 24.7771 78.0106 24.7461 78.2697 24.7461C78.4165 24.7461 78.5358 24.7499 78.6293 24.7578C78.722 24.7652 78.8136 24.7771 78.9038 24.7922C79.1511 24.8331 79.3189 24.9093 79.4065 25.022C79.4937 25.1341 79.5371 25.3076 79.5371 25.5424V27.3264C79.5371 27.3876 79.5262 27.4405 79.5037 27.4833C79.4814 27.5267 79.4389 27.5664 79.3769 27.6019C79.219 27.6889 79.0459 27.7586 78.8574 27.8128C78.6682 27.8662 78.4825 27.9071 78.2993 27.9351C78.1165 27.9631 77.9476 27.9807 77.7926 27.9886C77.6377 27.9963 77.5122 28 77.4165 28C76.56 28 75.9139 27.7729 75.4772 27.3187C75.0405 26.8643 74.8223 26.1855 74.8223 25.2821C74.8223 24.8584 74.8816 24.4744 74.9996 24.1298C75.1184 23.785 75.2915 23.4905 75.5196 23.2451C75.7478 23.0003 76.0266 22.8117 76.3556 22.6783C76.6856 22.5461 77.0613 22.4799 77.4839 22.4799C77.743 22.4799 78.015 22.5005 78.2993 22.541C78.5839 22.5819 78.8642 22.6684 79.1401 22.8015C79.1853 22.8218 79.215 22.8461 79.229 22.8741C79.2433 22.9021 79.2304 22.952 79.1907 23.0231L78.9626 23.4979C78.9346 23.5492 78.9093 23.5812 78.8867 23.5938C78.8642 23.6067 78.822 23.6028 78.7602 23.5822C78.5743 23.5158 78.3742 23.4635 78.1604 23.4253C77.9457 23.3871 77.7296 23.368 77.5094 23.368C77.2164 23.368 76.9674 23.4203 76.7615 23.5249C76.5562 23.6298 76.3898 23.7709 76.2631 23.9473C76.1362 24.1236 76.0436 24.3296 75.9842 24.5649C75.9254 24.7999 75.8951 25.0458 75.8951 25.3014C75.8951 25.5623 75.9194 25.8064 75.9668 26.0338C76.0149 26.2617 76.0995 26.4583 76.2205 26.6248C76.3422 26.7909 76.5079 26.9216 76.7192 27.0161C76.9304 27.1105 77.1968 27.1578 77.5181 27.1578Z" fill="#57595B"/>
<path fill-rule="evenodd" clip-rule="evenodd" d="M85.3781 25.0164L86.0288 23.8064L86.6627 22.6732C86.6911 22.6274 86.7177 22.5953 86.743 22.5775C86.7685 22.5599 86.809 22.5508 86.8655 22.5508H87.6851C87.7356 22.5508 87.7639 22.5621 87.7696 22.5852C87.7753 22.6082 87.7723 22.6326 87.761 22.6581L85.8686 25.8507V27.78C85.8686 27.8363 85.8569 27.8736 85.8347 27.8912C85.8123 27.9093 85.7697 27.918 85.7079 27.918H85.0064C84.9501 27.918 84.9095 27.9093 84.8837 27.8912C84.8586 27.8736 84.8457 27.8363 84.8457 27.78V25.8582L82.911 22.6655C82.8995 22.6404 82.8995 22.6145 82.911 22.5892C82.9221 22.5636 82.9501 22.5508 82.9953 22.5508H83.8489C83.9106 22.5508 83.9544 22.5599 83.9797 22.5775C84.0053 22.5953 84.0316 22.6301 84.0603 22.6804L84.7188 23.8525L85.3359 25.0164H85.3781Z" fill="#57595B"/>
<path d="M27.6946 1.22266C27.3908 0.507309 26.6804 0.00247562 25.8578 0.00247562H25.8574C26.6804 0.00247562 27.3908 0.507309 27.6946 1.22266Z" fill="#0095DA"/>
<path d="M2.37976 17.6189C2.37976 14.4992 4.19178 11.7964 6.81738 10.5036V8.80931V0.00238037H1.9945C0.897544 0.00238037 0 0.899918 0 1.99707V25.8643C0 26.9615 0.897544 27.8594 1.9945 27.8594H6.81738V26.9275V24.7342C4.19178 23.4416 2.37976 20.7382 2.37976 17.6189Z" fill="#0095DA"/>
<path d="M10.3042 10.8543C9.89448 10.8543 9.49397 10.8929 9.10402 10.963V13.0958V14.1322C9.62267 14.4939 9.96151 15.0943 9.96151 15.7745C9.96151 16.8795 9.06581 17.776 7.96081 17.776C6.8558 17.776 5.95977 16.8795 5.95977 15.7745C5.95977 15.0943 6.29928 14.4939 6.81726 14.1322V13.3592V11.8253C4.85694 13.0104 3.54297 15.1627 3.54297 17.6168C3.54297 20.1906 4.98866 22.4327 7.10985 23.5751L7.97907 22.7055L11.5463 19.1382C11.5309 19.0379 11.5228 18.9357 11.5228 18.8318C11.5228 17.7264 12.4187 16.8304 13.5234 16.8304C14.6287 16.8304 15.5244 17.7264 15.5244 18.8318C15.5244 19.9366 14.6287 20.833 13.5234 20.833C13.3871 20.833 13.2539 20.8191 13.125 20.7928L10.3766 23.5419L9.5791 24.3397C9.81723 24.3652 10.0592 24.3789 10.3042 24.3789C14.0323 24.3789 17.0655 21.3457 17.0655 17.6168C17.0655 13.8879 14.0323 10.8543 10.3042 10.8543Z" fill="#0095DA"/>
<path d="M25.8574 27.8594H25.8578C26.6806 27.8594 27.3908 27.3544 27.6946 26.639C27.3908 27.3544 26.6804 27.8594 25.8574 27.8594Z" fill="#0095DA"/>
<path d="M27.6937 1.22256C27.3899 0.507215 26.6795 0.00238419 25.8566 0.00238419H9.10352V8.87534V9.77187C9.5429 9.69394 9.99452 9.65337 10.456 9.65337C10.5824 9.65337 10.7077 9.65689 10.8324 9.66276C10.8735 9.66477 10.9142 9.66863 10.9552 9.67114C11.0385 9.67634 11.1218 9.6822 11.2044 9.69025C11.2527 9.69477 11.3003 9.70081 11.3482 9.70617C11.4231 9.71489 11.4977 9.72394 11.5718 9.73466C11.6222 9.74187 11.6721 9.75008 11.7222 9.75846C11.7931 9.77003 11.8638 9.7826 11.9342 9.79618C11.985 9.80606 12.0356 9.81629 12.0861 9.82718C12.1549 9.84193 12.2235 9.85786 12.2917 9.87462C12.3418 9.88668 12.3917 9.89892 12.4415 9.91216C12.5104 9.93026 12.5786 9.95021 12.6466 9.97032C12.6942 9.98423 12.7418 9.99764 12.789 10.0126C12.8619 10.0357 12.9338 10.0608 13.0059 10.0861C13.0469 10.1005 13.0885 10.1138 13.1292 10.1289C13.2376 10.1688 13.3451 10.211 13.4511 10.2558C13.4944 10.2739 13.5364 10.294 13.5792 10.3127C13.644 10.3416 13.709 10.3701 13.7729 10.4006C13.8243 10.4249 13.8749 10.4512 13.9257 10.4767C13.9795 10.5038 14.0333 10.5306 14.0863 10.559C14.1399 10.5876 14.1927 10.6175 14.2455 10.6471C14.2939 10.6746 14.3421 10.7019 14.3899 10.7303C14.4444 10.7624 14.4982 10.7956 14.5516 10.8291C14.596 10.8568 14.6399 10.8851 14.6837 10.9138C14.7385 10.9498 14.7933 10.9862 14.8472 11.0236C14.8869 11.0512 14.926 11.0794 14.9652 11.1075C15.0213 11.1479 15.0773 11.1885 15.1323 11.2302C15.1653 11.2554 15.1975 11.2815 15.2301 11.3072C15.2895 11.3539 15.349 11.4007 15.4071 11.4491C15.4217 11.4614 15.4358 11.4743 15.4502 11.4865C15.6766 11.6786 15.8916 11.8832 16.0943 12.0996C16.1059 12.112 16.1176 12.1239 16.1292 12.1363C16.1894 12.2013 16.2477 12.2679 16.3055 12.3349C16.3221 12.3542 16.339 12.3731 16.3554 12.3927C16.4114 12.4588 16.466 12.5262 16.5198 12.5944C16.5361 12.615 16.5525 12.6356 16.5687 12.6566C16.6225 12.7261 16.6752 12.7965 16.7266 12.8677C16.7402 12.8869 16.7536 12.9058 16.7672 12.9249C16.8201 13 16.8721 13.0756 16.9225 13.1523C16.9309 13.1654 16.9391 13.1785 16.9476 13.1916C17.297 13.7319 17.5806 14.3184 17.7875 14.9402C17.7897 14.9467 17.7921 14.9531 17.7942 14.9597C17.8267 15.0582 17.8569 15.1576 17.8856 15.2577L17.8946 15.2897C17.9226 15.3894 17.9487 15.4898 17.9729 15.5914C17.9749 15.5999 17.9769 15.609 17.9789 15.6177C18.0035 15.7234 18.0265 15.8297 18.0468 15.9371C18.1646 16.4795 18.2281 17.0418 18.2281 17.6189C18.2281 21.9891 14.6733 25.5447 10.3037 25.5447C9.89582 25.5447 9.49481 25.5135 9.10352 25.454V27.499V27.8594H25.8566C26.6795 27.8594 27.3899 27.3544 27.6937 26.639C27.7949 26.4005 27.8511 26.1386 27.8511 25.8643V1.99708C27.8511 1.72287 27.7949 1.46107 27.6937 1.22256Z" fill="#15B24B"/>
<path fill-rule="evenodd" clip-rule="evenodd" d="M90.2155 21.7664C90.119 21.9407 89.9826 22.077 89.8078 22.1742C89.633 22.2717 89.4503 22.3207 89.2605 22.3207C89.0699 22.3207 88.8874 22.2717 88.7123 22.1742C88.5375 22.077 88.4015 21.9407 88.3043 21.7664C88.2072 21.5921 88.1583 21.4101 88.1583 21.2195C88.1583 21.0288 88.2079 20.8446 88.3064 20.6677C88.4057 20.4916 88.5432 20.3553 88.7184 20.2604C88.8938 20.1652 89.075 20.1175 89.2605 20.1175C89.4441 20.1175 89.6248 20.1652 89.8006 20.2604C89.9767 20.3553 90.1143 20.4916 90.2126 20.6677C90.311 20.8446 90.3603 21.0288 90.3603 21.2195C90.3603 21.4101 90.3123 21.5921 90.2155 21.7664ZM90.4025 20.5574C90.2847 20.3463 90.1203 20.183 89.9095 20.0699C89.698 19.9557 89.4822 19.8987 89.2605 19.8987C89.0384 19.8987 88.8224 19.9557 88.6111 20.0699C88.4006 20.183 88.2356 20.3463 88.1171 20.5574C87.9986 20.7696 87.9395 20.9904 87.9395 21.2195C87.9395 21.4471 87.9981 21.6662 88.1144 21.8757C88.2309 22.0859 88.3938 22.2488 88.6034 22.3646C88.8129 22.4812 89.0319 22.5391 89.2605 22.5391C89.4885 22.5391 89.7074 22.4812 89.9172 22.3646C90.1263 22.2488 90.2889 22.0859 90.4047 21.8757C90.5212 21.6662 90.5791 21.4471 90.5791 21.2195C90.5791 20.9904 90.52 20.7696 90.4025 20.5574Z" fill="#57595B"/>
<path fill-rule="evenodd" clip-rule="evenodd" d="M89.1891 21.1506H88.9111V20.724H89.1716C89.2836 20.724 89.3602 20.7326 89.4021 20.7486C89.4434 20.7649 89.4756 20.7892 89.4991 20.8226C89.5222 20.8554 89.5343 20.8931 89.5343 20.935C89.5343 20.9997 89.5096 21.0522 89.4614 21.0912C89.4128 21.131 89.3221 21.1506 89.1891 21.1506ZM89.4914 21.3904C89.4614 21.3611 89.4208 21.3363 89.3707 21.3153C89.4935 21.3058 89.5919 21.2629 89.6662 21.1856C89.7404 21.1093 89.7778 21.0187 89.7778 20.9154C89.7778 20.8415 89.7555 20.7726 89.7111 20.7072C89.6668 20.6417 89.6075 20.5963 89.5326 20.5701C89.4579 20.5438 89.3372 20.5306 89.1698 20.5306H88.6816V21.9492H88.9111V21.3477H89.046C89.1264 21.3468 89.1872 21.3631 89.2289 21.3951C89.2899 21.4394 89.3707 21.55 89.4698 21.7261L89.5963 21.9492H89.8746L89.7012 21.6715C89.6182 21.5396 89.5483 21.4461 89.4914 21.3904Z" fill="#57595B"/>
<path d="M8.79828 15.8117C8.79828 16.2804 8.41838 16.6602 7.95001 16.6602C7.48146 16.6602 7.10156 16.2804 7.10156 15.8117C7.10156 15.3431 7.48146 14.9633 7.95001 14.9633C8.41838 14.9633 8.79828 15.3431 8.79828 15.8117Z" fill="#0094D7"/>
</g>
<defs>
<clipPath id="clip0_7218_20910">
<rect width="90.58" height="28" fill="white"/>
</clipPath>
</defs>
</svg>
