<svg width="36" height="36" viewBox="0 0 36 36" fill="none" xmlns="http://www.w3.org/2000/svg">
<path d="M14.9062 9.23438C14.5781 8.625 13.9219 8.25 13.2188 8.25H13.125C12.0469 8.25 11.25 9.09375 11.25 10.125C11.25 11.2031 12.0469 12 13.125 12H16.5H16.5469L14.9062 9.23438ZM9 10.125C9 7.875 10.8281 6 13.125 6H13.2188C14.7188 6 16.0781 6.79688 16.8281 8.10938L18 10.0312L19.125 8.10938C19.875 6.79688 21.2344 6 22.7344 6H22.875C25.125 6 27 7.875 27 10.125C27 10.8281 26.8125 11.4375 26.5312 12H30V18H6V12H9.42188C9.14062 11.4375 9 10.8281 9 10.125ZM24.75 10.125C24.75 9.09375 23.9062 8.25 22.875 8.25H22.7344C22.0312 8.25 21.4219 8.625 21.0469 9.23438L19.4062 12H19.5H22.875C23.9062 12 24.75 11.2031 24.75 10.125ZM7.5 19.5H16.5V30H7.5V19.5ZM19.5 30V19.5H28.5V30H19.5Z" fill="white"/>
</svg>
