<svg width="443" height="302" viewBox="0 0 443 302" fill="none" xmlns="http://www.w3.org/2000/svg">
<path d="M212.389 261.145C273.18 261.145 322.462 211.864 322.462 151.072C322.462 90.2808 273.18 40.999 212.389 40.999C151.597 40.9993 102.316 90.2809 102.316 151.072C102.317 211.863 151.598 261.144 212.389 261.145Z" stroke="url(#paint0_linear_8217_41917)" stroke-width="80"/>
<path d="M442.499 151.072C442.499 68.1889 375.309 0.999053 292.426 0.999053C209.543 0.999053 142.354 68.1889 142.354 151.072C142.354 233.955 209.543 301.145 292.426 301.145C375.309 301.145 442.499 233.955 442.499 151.072Z" stroke="#B9DEE1"/>
<path d="M443 151.074H32.8012L0.999992 182.875M0.999992 182.875H32.8012M0.999992 182.875V151.074" stroke="#B9DEE1"/>
<defs>
<linearGradient id="paint0_linear_8217_41917" x1="62.3164" y1="151.072" x2="362.462" y2="151.072" gradientUnits="userSpaceOnUse">
<stop stop-color="#E3F2FD"/>
<stop offset="1" stop-color="#F1F8E9"/>
</linearGradient>
</defs>
</svg>
