<svg width="30" height="30" viewBox="0 0 30 30" fill="none" xmlns="http://www.w3.org/2000/svg">
<g clip-path="url(#clip0_7218_6114)">
<path d="M18.75 5V12.7734C15.8594 13.5938 13.75 16.25 13.75 19.375C13.75 21.7188 14.8828 23.7891 16.6406 25H3.75V5H18.75ZM6.875 10H6.25V11.25H6.875H15.625H16.25V10H15.625H6.875ZM6.875 13.75H6.25V15H6.875H13.125H13.75V13.75H13.125H6.875ZM6.875 17.5H6.25V18.75H6.875H10.625H11.25V17.5H10.625H6.875ZM26.25 19.375C26.25 22.5 23.7109 25 20.625 25C17.5 25 15 22.5 15 19.375C15 16.2891 17.5 13.75 20.625 13.75C23.7109 13.75 26.25 16.2891 26.25 19.375ZM23.6719 18.125L22.8125 17.2656L22.3438 17.6953L20 20.0781L18.8672 18.9453L18.4375 18.5156L17.5391 19.375L17.9688 19.8438L19.5312 21.4062L20 21.8359L20.4297 21.4062L23.2422 18.5938L23.6719 18.125Z" fill="#607D8B"/>
</g>
<defs>
<clipPath id="clip0_7218_6114">
<rect width="30" height="30" fill="white"/>
</clipPath>
</defs>
</svg>
