<svg width="20" height="20" viewBox="0 0 20 20" fill="none" xmlns="http://www.w3.org/2000/svg">
<path d="M11 2V7H16V18H4V2H11ZM12 2L16 6H12V2ZM6.5 4H6V5H6.5H8.5H9V4H8.5H6.5ZM6.5 6H6V7H6.5H8.5H9V6H8.5H6.5ZM8.25 11.5H7.875L7.75 11.875L7.125 14H6.5H6V15H6.5H7.5H7.84375L7.96875 14.6562L8.5 12.9062L9 14.6562L9.125 15H9.5H9.75H10.0312L10.1875 14.75L10.5312 14H10.9375L11.2812 14.75L11.4375 15H11.75H13.5H14V14H13.5H12.0312L11.6875 13.2812L11.5312 13.0312H11.25H10.25H9.9375L9.78125 13.2812L9.6875 13.4688L9.21875 11.875L9.09375 11.5H8.75H8.25Z" fill="url(#paint0_linear_8217_3124)"/>
<defs>
<linearGradient id="paint0_linear_8217_3124" x1="2" y1="10" x2="18" y2="10" gradientUnits="userSpaceOnUse">
<stop stop-color="#0093D5"/>
<stop offset="1" stop-color="#50C659"/>
</linearGradient>
</defs>
</svg>
