<svg width="30" height="30" viewBox="0 0 30 30" fill="none" xmlns="http://www.w3.org/2000/svg">
<path d="M6.75 10.5C4.64062 10.5 3 8.85938 3 6.75C3 4.6875 4.64062 3 6.75 3C8.8125 3 10.5 4.6875 10.5 6.75C10.5 8.85938 8.8125 10.5 6.75 10.5ZM24 10.5C21.8906 10.5 20.25 8.85938 20.25 6.75C20.25 4.6875 21.8906 3 24 3C26.0625 3 27.75 4.6875 27.75 6.75C27.75 8.85938 26.0625 10.5 24 10.5ZM2.25 12H9.1875C9.04688 12.5156 9 12.9844 9 13.5C9 15.3281 9.75 16.9219 11.0156 18H0L2.25 12ZM30 18H18.9375C20.2031 16.9219 21 15.3281 21 13.5C21 12.9844 20.9062 12.5156 20.8125 12H27.75L30 18ZM19.5 13.5C19.5 15.9844 17.4844 18 15 18C12.5156 18 10.5 15.9844 10.5 13.5C10.5 11.0156 12.5156 9 15 9C17.4844 9 19.5 11.0156 19.5 13.5ZM21.75 19.5L24 27H6L8.25 19.5H21.75Z" fill="white"/>
</svg>
