<svg width="40" height="40" viewBox="0 0 40 40" fill="none" xmlns="http://www.w3.org/2000/svg">
<path d="M36.3129 4.57764e-05H11.1719V40H36.3129C38.3488 40 39.999 38.3498 39.999 36.314V3.68608C39.999 1.65035 38.3488 4.57764e-05 36.3129 4.57764e-05Z" fill="#85C440"/>
<path d="M14.4739 14.2738C13.3239 14.2738 12.2153 14.4502 11.1731 14.7768V4.57764e-05H3.68616C1.65031 4.57764e-05 0 1.65035 0 3.68608V36.314C0 38.3498 1.65031 40 3.68616 40H11.1731V35.8132C12.2153 36.14 13.3239 36.3162 14.4739 36.3162C20.5608 36.3162 25.4952 31.3818 25.4952 25.2951C25.4952 19.2082 20.5608 14.2738 14.4739 14.2738Z" fill="#0C8DCC"/>
<path d="M14.5905 35.1502C14.2933 35.1502 13.9994 35.1361 13.7089 35.11L18.8136 29.6251C18.9505 29.6457 19.0906 29.6567 19.2334 29.6567C20.7698 29.6567 22.0153 28.4112 22.0153 26.8747C22.0153 25.3384 20.7698 24.0928 19.2334 24.0928C17.697 24.0928 16.4514 25.3384 16.4514 26.8747C16.4514 27.0296 16.4647 27.1813 16.489 27.3293L10.1871 34.1006C7.00349 32.4873 4.81594 29.1823 4.81594 25.3757C4.81594 21.7574 6.79231 18.592 9.72218 16.9023V20.463C9.02608 20.9687 8.57309 21.7887 8.57309 22.7148C8.57309 24.2511 9.81863 25.4967 11.355 25.4967C12.8914 25.4967 14.1369 24.2511 14.1369 22.7148C14.1369 21.7887 13.6839 20.9687 12.9878 20.463V15.7333C13.5096 15.647 14.0447 15.6012 14.5905 15.6012C19.9802 15.6012 24.3651 19.9861 24.3651 25.3757C24.3651 30.7654 19.9802 35.1502 14.5905 35.1502ZM22.6247 17.3417C20.4787 15.1956 17.6254 14.0138 14.5905 14.0138C14.0495 14.0138 13.5144 14.0521 12.9878 14.126V4.57764e-05H9.72218V15.1032C8.56159 15.6542 7.49181 16.4062 6.55636 17.3417C4.41035 19.4877 3.22852 22.3408 3.22852 25.3757C3.22852 28.4107 4.41035 31.2639 6.55636 33.4099C7.4958 34.3493 8.57086 35.104 9.73732 35.6557V40H13.003V36.6277C13.5246 36.7001 14.0547 36.7376 14.5905 36.7376C17.6254 36.7376 20.4787 35.5558 22.6247 33.4099C24.7707 31.2639 25.9525 28.4107 25.9525 25.3757C25.9525 22.3408 24.7707 19.4877 22.6247 17.3417Z" fill="white"/>
</svg>
